<?xml version="1.0" encoding="utf-8"?>
<!-- Generator: Adobe Illustrator 19.1.0, SVG Export Plug-In . SVG Version: 6.00 Build 0)  -->
<svg version="1.1" id="Layer_1" xmlns="http://www.w3.org/2000/svg" xmlns:xlink="http://www.w3.org/1999/xlink" x="0px" y="0px"
	 viewBox="-573 276 100 100" style="enable-background:new -573 276 100 100;" xml:space="preserve">
<style type="text/css">
	.st0{fill:#FFF200;}
</style>
<g>
	
		<image style="overflow:visible;opacity:0.5;" width="62" height="62" xlink:href="3E28DAF7A3925C04.png"  transform="matrix(1 0 0 1 -553.504 295.4661)">
	</image>
	<g>
		<g>
			<path class="st0" d="M-523.1,347.1c-11.6,0-21.1-9.4-21.1-21.1c0-11,8.2-20,19.1-21.1c0.7,0,1.4,0.3,1.7,1
				c0.3,0.7,0.1,1.4-0.4,1.8c-2.6,2.5-4.2,5.8-4.2,9.4c0,7.2,5.8,13,13,13c3.9,0,7.6-1.8,10.1-4.7c0.4-0.6,1.2-0.7,1.8-0.6
				c0.7,0.3,1.1,0.8,1.1,1.5C-502.3,338-511.6,347.1-523.1,347.1z"/>
		</g>
	</g>
</g>
</svg>
