<?xml version="1.0" encoding="utf-8"?>
<!-- Generator: Adobe Illustrator 19.1.0, SVG Export Plug-In . SVG Version: 6.00 Build 0)  -->
<svg version="1.1" id="Layer_1" xmlns="http://www.w3.org/2000/svg" xmlns:xlink="http://www.w3.org/1999/xlink" x="0px" y="0px"
	 viewBox="-573 276 100 100" style="enable-background:new -573 276 100 100;" xml:space="preserve">
<style type="text/css">
	.st0{fill:#FFF200;}
</style>
<g>
	
		<image style="overflow:visible;opacity:0.5;" width="92" height="75" xlink:href="DB8848414E69FBF4.png"  transform="matrix(1 0 0 1 -566.504 290.4661)">
	</image>
	<g>
		<path class="st0" d="M-484.2,315.2c0-0.5-0.3-1-0.8-1.1c-0.5-0.2-1,0-1.3,0.4c-1.8,2.2-4.4,3.4-7.3,3.4c-5.2,0-9.4-4.2-9.4-9.4
			c0-2.6,1.1-5,3-6.8c0.4-0.3,0.5-0.9,0.3-1.3c-0.2-0.5-0.7-0.7-1.2-0.7c-7.5,0.7-13.3,6.8-13.7,14.2c-2-1.2-4.4-1.9-6.9-1.9
			c-0.1,0-0.2,0-0.4,0c-1,0-1.9,0.1-2.9,0.4c-1.7,0.4-3.3,1.2-4.7,2.2c-2.9-1.7-6.1-2.6-9.4-2.6c-10.2,0-18.6,8.3-18.6,18.6
			c0,10.2,8.3,18.6,18.6,18.6c1.4,0,2.7-0.2,4.1-0.5c2.5,3.9,6.7,6.3,11.4,6.3c5.6,0,10.6-3.5,12.6-8.7c1.8,0.9,3.8,1.4,5.9,1.4
			c7.4,0,13.5-6,13.5-13.5c0-2-0.4-3.9-1.2-5.6C-487.8,326.1-484.4,321.1-484.2,315.2z M-493.9,326.5c-2.1-3-5.3-5.1-9-5.6
			c-0.7-0.1-1.4-0.2-2.1-0.2c-0.1,0-0.2,0-0.4,0c-1.2,0-2.3,0.2-3.5,0.5c-0.7-2.2-1.9-4.1-3.5-5.6c0-0.3,0-0.5,0-0.8
			c0-5.6,3.5-10.4,8.6-12.1c-1,1.8-1.6,3.8-1.6,5.8c0,6.5,5.3,11.7,11.7,11.7c2.4,0,4.6-0.7,6.6-2
			C-488,321.9-490.6,324.9-493.9,326.5z"/>
	</g>
</g>
</svg>
