<?xml version="1.0" encoding="utf-8"?>
<!-- Generator: Adobe Illustrator 19.1.0, SVG Export Plug-In . SVG Version: 6.00 Build 0)  -->
<svg version="1.1" id="Layer_1" xmlns="http://www.w3.org/2000/svg" xmlns:xlink="http://www.w3.org/1999/xlink" x="0px" y="0px"
	 viewBox="-573 276 100 100" style="enable-background:new -573 276 100 100;" xml:space="preserve">
<style type="text/css">
	.st0{fill:#FFF200;}
</style>
<g>
	
		<image style="overflow:visible;opacity:0.5;" width="85" height="62" xlink:href="F19E76C7FD2E7F87.png"  transform="matrix(1 0 0 1 -563.504 298.4661)">
	</image>
	<g>
		<g>
			<path class="st0" d="M-522.4,350.6c-5.6,0-10.6-3.5-12.6-8.7c-1.8,0.9-3.8,1.4-5.9,1.4c-7.4,0-13.5-6-13.5-13.5
				c0-7.4,6-13.5,13.5-13.5c1.3,0,2.6,0.2,3.8,0.6c1.8-5.5,6.9-9.2,12.8-9.2c2.9,0,5.6,0.9,7.9,2.6c2.9-1.7,6.1-2.6,9.4-2.6
				c10.2,0,18.6,8.3,18.6,18.6c0,10.2-8.3,18.6-18.6,18.6c-1.4,0-2.7-0.2-4.1-0.5C-513.5,348.2-517.7,350.6-522.4,350.6z"/>
		</g>
	</g>
</g>
</svg>
