<?xml version="1.0" encoding="utf-8"?>
<!-- Generator: Adobe Illustrator 19.1.0, SVG Export Plug-In . SVG Version: 6.00 Build 0)  -->
<svg version="1.1" id="Layer_1" xmlns="http://www.w3.org/2000/svg" xmlns:xlink="http://www.w3.org/1999/xlink" x="0px" y="0px"
	 viewBox="-573 276 100 100" style="enable-background:new -573 276 100 100;" xml:space="preserve">
<style type="text/css">
	.st0{fill:#FFF200;}
</style>
<g>
	
		<image style="overflow:visible;opacity:0.5;" width="85" height="83" xlink:href="89EA5134C30DE2AC.png"  transform="matrix(1 0 0 1 -563.504 289.4661)">
	</image>
	<g>
		<g>
			<path class="st0" d="M-535.8,348.7c0,1.9-1.5,3.4-3.4,3.4s-3.4-1.5-3.4-3.4s3.4-6.9,3.4-6.9S-535.8,346.9-535.8,348.7z"/>
			<path class="st0" d="M-521.3,359c0,1.9-1.5,3.4-3.4,3.4s-3.4-1.5-3.4-3.4s3.4-6.9,3.4-6.9S-521.3,357.2-521.3,359z"/>
			<path class="st0" d="M-507.5,355.5c0,1.9-1.5,3.4-3.4,3.4s-3.4-1.5-3.4-3.4s3.4-6.9,3.4-6.9S-507.5,353.6-507.5,355.5z"/>
			<g>
				<path class="st0" d="M-522.7,341.8c-5.7,0-10.6-3.5-12.6-8.7c-1.8,0.9-3.8,1.4-5.9,1.4c-7.4,0-13.5-6-13.5-13.5
					s6-13.5,13.5-13.5c1.3,0,2.6,0.2,3.8,0.6c1.8-5.5,6.9-9.2,12.8-9.2c2.9,0,5.6,0.9,7.9,2.6c2.9-1.7,6.1-2.6,9.4-2.6
					c10.2,0,18.6,8.3,18.6,18.5S-497,336-507.3,336c-1.4,0-2.7-0.2-4.1-0.5C-513.8,339.5-518,341.8-522.7,341.8z"/>
			</g>
		</g>
	</g>
</g>
</svg>
