<?xml version="1.0" encoding="utf-8"?>
<!-- Generator: Adobe Illustrator 19.1.0, SVG Export Plug-In . SVG Version: 6.00 Build 0)  -->
<svg version="1.1" id="Layer_1" xmlns="http://www.w3.org/2000/svg" xmlns:xlink="http://www.w3.org/1999/xlink" x="0px" y="0px"
	 viewBox="-573 276 100 100" style="enable-background:new -573 276 100 100;" xml:space="preserve">
<style type="text/css">
	.st0{fill:#FFF200;}
</style>
<g>
	
		<image style="overflow:visible;opacity:0.5;" width="87" height="80" xlink:href="E2F5E3D603027583.png"  transform="matrix(1 0 0 1 -566.504 275.4661)">
	</image>
	<g>
		<g>
			<path class="st0" d="M-533.2,291.4c0.6,0,1.2-0.5,1.2-1.2v-4.9c0-0.6-0.5-1.2-1.2-1.2s-1.2,0.5-1.2,1.2v4.9
				C-534.4,290.8-533.8,291.4-533.2,291.4z"/>
			<path class="st0" d="M-521.5,297.3c0.3,0,0.6-0.1,0.8-0.3l4.2-4.2c0.5-0.5,0.5-1.2,0-1.7s-1.2-0.5-1.7,0l-4.2,4.2
				c-0.5,0.5-0.5,1.2,0,1.7C-522.1,297.2-521.8,297.3-521.5,297.3z"/>
			<path class="st0" d="M-547.6,297c0.2,0.2,0.5,0.3,0.8,0.3s0.6-0.1,0.8-0.3c0.5-0.5,0.5-1.2,0-1.7l-4.2-4.2
				c-0.5-0.5-1.2-0.5-1.7,0s-0.5,1.2,0,1.7L-547.6,297z"/>
			<path class="st0" d="M-549.8,307.6c0-0.6-0.5-1.2-1.2-1.2h-5.3c-0.6,0-1.2,0.5-1.2,1.2c0,0.6,0.5,1.2,1.2,1.2h5.3
				C-550.3,308.8-549.8,308.2-549.8,307.6z"/>
			<path class="st0" d="M-508.2,302.5c-3.3,0-6.6,0.9-9.4,2.6c-1.4-1-3-1.8-4.7-2.2c-2.2-5.1-7.7-8-13.3-6.8c-6.3,1.4-10.3,7.7-9,14
				c0.1,0.4,0.2,0.9,0.4,1.3c-6.4,1-11.4,6.6-11.4,13.3c0,7.4,6,13.5,13.5,13.5c2,0,4.1-0.5,5.9-1.4c2,5.2,6.9,8.7,12.6,8.7
				c4.6,0,8.9-2.4,11.4-6.3c1.4,0.3,2.8,0.5,4.1,0.5c10.2,0,18.6-8.3,18.6-18.6C-489.7,310.8-498,302.5-508.2,302.5z M-535.2,298.4
				c4-0.9,7.9,0.9,9.9,4.1c-0.1,0-0.2,0-0.4,0c-5.9,0-11,3.7-12.8,9.2c-1.1-0.3-2.3-0.5-3.5-0.5c-0.2-0.5-0.4-1-0.5-1.6
				C-543.5,304.5-540.3,299.5-535.2,298.4z"/>
		</g>
	</g>
</g>
<g>
	
		<image style="overflow:visible;opacity:0.5;" width="54" height="40" xlink:href="E2F5E3D603027586.png"  transform="matrix(1 0 0 1 -551.504 337.4661)">
	</image>
	<g>
		<g>
			<path class="st0" d="M-535.8,353.3c0,1.9-1.5,3.4-3.4,3.4s-3.4-1.5-3.4-3.4s3.4-6.9,3.4-6.9S-535.8,351.4-535.8,353.3z"/>
			<path class="st0" d="M-521.3,363.6c0,1.9-1.5,3.4-3.4,3.4s-3.4-1.5-3.4-3.4s3.4-6.9,3.4-6.9S-521.3,361.7-521.3,363.6z"/>
			<path class="st0" d="M-507.5,360.1c0,1.9-1.5,3.4-3.4,3.4s-3.4-1.5-3.4-3.4s3.4-6.9,3.4-6.9S-507.5,358.2-507.5,360.1z"/>
		</g>
	</g>
</g>
</svg>
