<?xml version="1.0" encoding="utf-8"?>
<!-- Generator: Adobe Illustrator 19.1.0, SVG Export Plug-In . SVG Version: 6.00 Build 0)  -->
<svg version="1.1" id="Layer_1" xmlns="http://www.w3.org/2000/svg" xmlns:xlink="http://www.w3.org/1999/xlink" x="0px" y="0px"
	 viewBox="-573 276 100 100" style="enable-background:new -573 276 100 100;" xml:space="preserve">
<style type="text/css">
	.st0{fill:#FFF200;}
</style>
<g>
	
		<image style="overflow:visible;opacity:0.5;" width="85" height="80" xlink:href="2DFDB648D4CDDC48.png"  transform="matrix(1 0 0 1 -561.504 288.4661)">
	</image>
	<g>
		<path class="st0" d="M-505.6,297.7c-3.3,0-6.6,0.9-9.4,2.6c-2.3-1.7-5.1-2.6-7.9-2.6c-5.9,0-11,3.7-12.8,9.2
			c-1.2-0.4-2.5-0.6-3.8-0.6c-7.4,0-13.5,6-13.5,13.5c0,4.7,2.4,8.8,6,11.2c2.1,1.4,4.7,2.3,7.4,2.3c2,0,4.1-0.5,5.9-1.4
			c0.1,0.3,0.2,0.6,0.3,0.8c1.5,3.3,4.2,5.7,7.5,7c0.2,0.1,0.4,0.1,0.6,0.2l-3.4,5.9l3.8,2.6l-3.8,10.3l10.9-9.6l-5.4-3.3l5.4-5.6
			l0,0c2.6-0.6,4.9-2,6.6-4c0.5-0.6,1-1.2,1.5-1.9c0.3,0.1,0.6,0.1,1,0.2c1.1,0.2,2.1,0.3,3.2,0.3c10.2,0,18.6-8.3,18.6-18.5
			C-487,306-495.3,297.7-505.6,297.7z"/>
	</g>
</g>
</svg>
