<?xml version="1.0" encoding="utf-8"?>
<!-- Generator: Adobe Illustrator 19.1.0, SVG Export Plug-In . SVG Version: 6.00 Build 0)  -->
<svg version="1.1" id="Layer_1" xmlns="http://www.w3.org/2000/svg" xmlns:xlink="http://www.w3.org/1999/xlink" x="0px" y="0px"
	 viewBox="-573 276 100 100" style="enable-background:new -573 276 100 100;" xml:space="preserve">
<style type="text/css">
	.st0{fill:#FFF200;}
</style>
<g>
	
		<image style="overflow:visible;opacity:0.5;" width="85" height="80" xlink:href="A439B27A01D3BF82.png"  transform="matrix(1 0 0 1 -563.504 289.4661)">
	</image>
	<g>
		<g>
			<path class="st0" d="M-516.2,354l-1.6-1.3c0.4-0.8,0.6-1.6,0.6-2.5s-0.2-1.7-0.5-2.4l1.7-1.4c0.7-0.6,0.8-1.6,0.2-2.3
				c-0.6-0.7-1.6-0.8-2.3-0.2l-1.7,1.4c-0.5-0.4-1.1-0.6-1.8-0.8v-2.2c0-0.9-0.7-1.6-1.6-1.6s-1.6,0.7-1.6,1.6v2.2
				c-0.6,0.2-1.2,0.4-1.7,0.8l-1.7-1.4c-0.7-0.6-1.7-0.4-2.3,0.3c-0.6,0.7-0.4,1.7,0.3,2.3l1.6,1.3c-0.4,0.8-0.6,1.6-0.6,2.5
				c0,0.7,0.1,1.4,0.4,2l-1.7,1.5c-0.7,0.6-0.8,1.6-0.2,2.3c0.3,0.4,0.8,0.6,1.3,0.6c0.4,0,0.7-0.1,1-0.4l1.6-1.3
				c0.6,0.5,1.3,0.9,2.1,1.1v2.2c0,0.9,0.7,1.6,1.6,1.6s1.6-0.7,1.6-1.6V356c0.6-0.2,1.2-0.4,1.7-0.8l1.7,1.4c0.3,0.2,0.7,0.4,1,0.4
				c0.5,0,1-0.2,1.3-0.6C-515.4,355.6-515.5,354.6-516.2,354z M-525.4,351.9c-0.1-0.1-0.1-0.3-0.2-0.4c0,0,0,0-0.1-0.1
				c-0.2-0.4-0.3-0.8-0.3-1.3c0-0.6,0.2-1.2,0.6-1.6c0.1-0.1,0.1-0.1,0.2-0.2l0.1-0.1c0.5-0.5,1.2-0.8,1.9-0.8
				c1.5,0,2.7,1.2,2.7,2.7c0,0.6-0.2,1.2-0.5,1.6c-0.1,0.1-0.2,0.1-0.2,0.2l-0.1,0.1c-0.5,0.5-1.2,0.8-1.9,0.8
				C-524.1,352.9-524.9,352.5-525.4,351.9z"/>
			<path class="st0" d="M-498.8,349.2l-1-0.8c0.2-0.5,0.3-1,0.3-1.5s-0.1-1-0.3-1.5l1-0.8c0.4-0.4,0.5-1,0.1-1.4s-1-0.5-1.4-0.1
				l-1,0.8c-0.3-0.2-0.7-0.4-1.1-0.5V342c0-0.5-0.4-1-1-1c-0.5,0-1,0.4-1,1v1.3c-0.4,0.1-0.7,0.3-1,0.5l-1.1-0.8
				c-0.4-0.3-1.1-0.3-1.4,0.2c-0.3,0.4-0.3,1.1,0.2,1.4l1,0.8c-0.2,0.5-0.3,1-0.3,1.5c0,0.4,0.1,0.8,0.2,1.2l-1.1,0.9
				c-0.4,0.4-0.5,1-0.1,1.4c0.2,0.2,0.5,0.4,0.8,0.4c0.2,0,0.5-0.1,0.6-0.2l0.9-0.8c0.4,0.3,0.8,0.5,1.3,0.7v1.3c0,0.6,0.4,1,1,1
				c0.5,0,1-0.4,1-1v-1.3c0.4-0.1,0.7-0.3,1-0.5l1.1,0.8c0.2,0.1,0.4,0.2,0.6,0.2c0.3,0,0.6-0.1,0.8-0.4
				C-498.3,350.1-498.3,349.5-498.8,349.2z M-504.3,347.9c0-0.1-0.1-0.2-0.1-0.2l0,0c-0.1-0.2-0.2-0.5-0.2-0.8c0-0.4,0.1-0.7,0.3-1
				l0.1-0.1v-0.1c0.3-0.3,0.7-0.5,1.1-0.5c0.9,0,1.7,0.7,1.7,1.7c0,0.4-0.1,0.7-0.3,1c-0.1,0-0.1,0.1-0.1,0.1s0,0,0,0.1
				c-0.3,0.3-0.7,0.5-1.1,0.5C-503.6,348.5-504,348.3-504.3,347.9z"/>
			<path class="st0" d="M-537.4,345.9l-1-0.8c0.2-0.5,0.3-1,0.3-1.5s-0.1-1-0.3-1.5l1-0.8c0.4-0.4,0.5-1,0.1-1.4s-1-0.5-1.4-0.1
				l-1,0.9c-0.3-0.2-0.7-0.4-1.1-0.5v-1.3c0-0.6-0.4-1-1-1c-0.5,0-1,0.4-1,1v1.3c-0.4,0.1-0.7,0.3-1,0.5l-1.1-0.8
				c-0.4-0.3-1.1-0.3-1.4,0.2c-0.3,0.4-0.3,1.1,0.2,1.4l1,0.8c-0.2,0.5-0.3,1-0.3,1.5c0,0.4,0.1,0.8,0.2,1.2l-1.1,0.9
				c-0.4,0.4-0.5,1-0.1,1.4c0.2,0.2,0.5,0.4,0.8,0.4c0.2,0,0.5-0.1,0.6-0.2l0.9-0.8c0.4,0.3,0.8,0.5,1.3,0.7v1.3c0,0.6,0.4,1,1,1
				s1-0.4,1-1v-1.3c0.4-0.1,0.7-0.3,1-0.5l1.1,0.8c0.2,0.1,0.4,0.2,0.6,0.2c0.3,0,0.6-0.1,0.8-0.4
				C-536.9,346.8-536.9,346.2-537.4,345.9z M-543,344.6c0-0.1-0.1-0.2-0.1-0.2l0,0c-0.1-0.2-0.2-0.5-0.2-0.8c0-0.4,0.1-0.7,0.3-1
				l0.1-0.1c0,0,0,0,0-0.1c0.3-0.3,0.7-0.5,1.1-0.5c0.9,0,1.7,0.7,1.7,1.7c0,0.4-0.1,0.7-0.3,1l-0.1,0.1c0,0,0,0,0,0.1
				c-0.3,0.3-0.7,0.5-1.1,0.5C-542.2,345.2-542.7,345-543,344.6z"/>
			<g>
				<path class="st0" d="M-522.5,340.9c-5.6,0-10.6-3.5-12.6-8.7c-1.8,0.9-3.8,1.4-5.9,1.4c-7.4,0-13.5-6-13.5-13.5
					c0-7.4,6-13.5,13.5-13.5c1.3,0,2.6,0.2,3.8,0.6c1.8-5.5,6.9-9.2,12.8-9.2c2.9,0,5.6,0.9,7.9,2.6c2.9-1.7,6.1-2.6,9.4-2.6
					c10.2,0,18.6,8.3,18.6,18.5s-8.3,18.6-18.6,18.6c-1.4,0-2.7-0.2-4.1-0.5C-513.6,338.5-517.9,340.9-522.5,340.9z"/>
			</g>
		</g>
	</g>
</g>
</svg>
