<?xml version="1.0" encoding="utf-8"?>
<!-- Generator: Adobe Illustrator 19.1.0, SVG Export Plug-In . SVG Version: 6.00 Build 0)  -->
<svg version="1.1" id="Layer_1" xmlns="http://www.w3.org/2000/svg" xmlns:xlink="http://www.w3.org/1999/xlink" x="0px" y="0px"
	 viewBox="-573 276 100 100" style="enable-background:new -573 276 100 100;" xml:space="preserve">
<style type="text/css">
	.st0{fill:#FFFFFF;}
</style>
<g>
	<g>
		<path class="st0" d="M-522.4,339.6c-6.5,0-11.7-5.3-11.7-11.7s5.3-11.7,11.7-11.7c6.5,0,11.7,5.3,11.7,11.7
			C-510.7,334.3-515.9,339.6-522.4,339.6z M-522.4,318.5c-5.2,0-9.4,4.2-9.4,9.4c0,5.2,4.2,9.4,9.4,9.4s9.4-4.2,9.4-9.4
			C-513,322.7-517.2,318.5-522.4,318.5z"/>
	</g>
	<g>
		<path class="st0" d="M-522.4,311.6c-0.6,0-1.2-0.5-1.2-1.2v-4.9c0-0.6,0.5-1.2,1.2-1.2c0.6,0,1.2,0.5,1.2,1.2v4.9
			C-521.2,311.1-521.8,311.6-522.4,311.6z"/>
	</g>
	<g>
		<path class="st0" d="M-510.7,317.6c-0.3,0-0.6-0.1-0.8-0.3c-0.5-0.5-0.5-1.2,0-1.7l4.2-4.2c0.5-0.5,1.2-0.5,1.7,0
			c0.5,0.5,0.5,1.2,0,1.7l-4.2,4.2C-510.1,317.5-510.4,317.6-510.7,317.6z"/>
	</g>
	<g>
		<path class="st0" d="M-536,317.6c-0.3,0-0.6-0.1-0.8-0.3l-4.2-4.2c-0.5-0.5-0.5-1.2,0-1.7c0.5-0.5,1.2-0.5,1.7,0l4.2,4.2
			c0.5,0.5,0.5,1.2,0,1.7C-535.4,317.5-535.7,317.6-536,317.6z"/>
	</g>
	<g>
		<path class="st0" d="M-523.4,351.1c-0.6,0-1.2-0.5-1.2-1.2v-4.9c0-0.6,0.5-1.2,1.2-1.2c0.6,0,1.2,0.5,1.2,1.2v4.9
			C-522.2,350.6-522.7,351.1-523.4,351.1z"/>
	</g>
	<g>
		<path class="st0" d="M-539.3,344.5c-0.3,0-0.6-0.1-0.8-0.3c-0.5-0.5-0.5-1.2,0-1.7l4.2-4.2c0.5-0.5,1.2-0.5,1.7,0
			c0.5,0.5,0.5,1.2,0,1.7l-4.2,4.2C-538.7,344.4-539,344.5-539.3,344.5z"/>
	</g>
	<g>
		<path class="st0" d="M-505.6,344.5c-0.3,0-0.6-0.1-0.8-0.3l-4.2-4.2c-0.5-0.5-0.5-1.2,0-1.7c0.5-0.5,1.2-0.5,1.7,0l4.2,4.2
			c0.5,0.5,0.5,1.2,0,1.7C-505,344.4-505.3,344.5-505.6,344.5z"/>
	</g>
	<g>
		<path class="st0" d="M-540.2,329h-5.3c-0.6,0-1.2-0.5-1.2-1.2c0-0.6,0.5-1.2,1.2-1.2h5.3c0.6,0,1.2,0.5,1.2,1.2
			C-539,328.5-539.5,329-540.2,329z"/>
	</g>
	<g>
		<path class="st0" d="M-500.2,329h-6.3c-0.6,0-1.2-0.5-1.2-1.2c0-0.6,0.5-1.2,1.2-1.2h6.3c0.6,0,1.2,0.5,1.2,1.2
			C-499.1,328.5-499.6,329-500.2,329z"/>
	</g>
</g>
</svg>
