<?xml version="1.0" encoding="utf-8"?>
<!-- Generator: Adobe Illustrator 19.1.0, SVG Export Plug-In . SVG Version: 6.00 Build 0)  -->
<svg version="1.1" id="Layer_1" xmlns="http://www.w3.org/2000/svg" xmlns:xlink="http://www.w3.org/1999/xlink" x="0px" y="0px"
	 viewBox="-573 276 100 100" style="enable-background:new -573 276 100 100;" xml:space="preserve">
<style type="text/css">
	.st0{fill:#FFFFFF;}
</style>
<g>
	<path class="st0" d="M-523.1,343c-8.4,0-15.2-6.8-15.2-15.2c0-7.9,5.9-14.4,13.8-15.2c0.5,0,1,0.2,1.2,0.7c0.2,0.5,0.1,1-0.3,1.3
		c-1.9,1.8-3,4.2-3,6.8c0,5.2,4.2,9.4,9.4,9.4c2.8,0,5.5-1.3,7.3-3.4c0.3-0.4,0.9-0.5,1.3-0.4c0.5,0.2,0.8,0.6,0.8,1.1
		C-508.1,336.5-514.8,343-523.1,343z M-527.5,315.6c-5,1.8-8.6,6.6-8.6,12.1c0,7.1,5.8,12.9,12.9,12.9c6,0,10.9-4,12.4-9.4
		c-1.9,1.3-4.2,2-6.6,2c-6.5,0-11.7-5.3-11.7-11.7C-529,319.3-528.5,317.3-527.5,315.6z"/>
</g>
</svg>
