<?xml version="1.0" encoding="utf-8"?>
<!-- Generator: Adobe Illustrator 19.1.0, SVG Export Plug-In . SVG Version: 6.00 Build 0)  -->
<svg version="1.1" id="Layer_1" xmlns="http://www.w3.org/2000/svg" xmlns:xlink="http://www.w3.org/1999/xlink" x="0px" y="0px"
	 viewBox="-573 276 100 100" style="enable-background:new -573 276 100 100;" xml:space="preserve">
<style type="text/css">
	.st0{fill:#FFFFFF;}
</style>
<path class="st0" d="M-486.3,310.7c0-7.1-5.8-12.9-12.9-12.9c-2.2,0-4.3,0.6-6.2,1.6c-1.6-1-3.4-1.6-5.3-1.6c-3.9,0-7.4,2.4-8.9,6
	c-0.7-0.2-1.4-0.2-2.1-0.2c-5.3,0-9.6,4.3-9.6,9.6c0,0.7,0.1,1.4,0.2,2c-2.6,1.6-4.6,4.1-5.6,7.2c-1.2-0.4-2.5-0.6-3.8-0.6
	c-7.4,0-13.5,6-13.5,13.5c0,7.4,6,13.5,13.5,13.5c2,0,4.1-0.5,5.9-1.4c2,5.2,6.9,8.7,12.6,8.7c4.6,0,8.9-2.4,11.4-6.3
	c1.4,0.3,2.8,0.5,4.1,0.5c10.2,0,18.6-8.3,18.6-18.6c0-4-1.3-7.6-3.4-10.6C-488.3,318.6-486.3,314.9-486.3,310.7z M-490.3,331.6
	c0,8.9-7.3,16.2-16.2,16.2c-1.4,0-2.9-0.2-4.4-0.6c-0.5-0.1-1.1,0.1-1.4,0.6c-1.9,3.6-5.7,5.8-9.8,5.8c-5.1,0-9.5-3.4-10.7-8.4
	c-0.1-0.4-0.4-0.7-0.7-0.8c-0.1-0.1-0.3-0.1-0.4-0.1c-0.2,0-0.4,0.1-0.6,0.2c-1.8,1.1-3.8,1.7-5.9,1.7c-6.1,0-11.1-5-11.1-11.1
	c0-6.1,5-11.1,11.1-11.1c1.4,0,2.8,0.3,4.2,0.8c0.3,0.1,0.7,0.1,1,0c0.3-0.2,0.5-0.4,0.6-0.8c0.6-2.8,2.3-5.1,4.5-6.7
	c0.8-0.5,1.6-1,2.6-1.3c1.2-0.4,2.5-0.7,3.8-0.7c2.6,0,5.1,0.9,7.1,2.6c0.4,0.3,1,0.4,1.4,0.1c2.6-1.7,5.7-2.7,8.9-2.7
	c4.4,0,8.3,1.7,11.2,4.6c0.7,0.7,1.4,1.4,1.9,2.3C-491.4,324.9-490.3,328.1-490.3,331.6z M-506.5,313.1c-3.3,0-6.6,0.9-9.4,2.6
	c-2.3-1.7-5.1-2.6-7.9-2.6c-1.6,0-3.1,0.3-4.5,0.8c0-0.2,0-0.5,0-0.7c0-3.7,3-6.7,6.7-6.7c0.9,0,1.7,0.2,2.5,0.5
	c0.2,0.1,0.4,0.1,0.5,0.1c0.2,0,0.5-0.1,0.7-0.2c0.4-0.2,0.6-0.5,0.7-1c0.7-3.1,3.4-5.2,6.5-5.2c1.6,0,3.1,0.6,4.3,1.5
	c0.3,0.2,0.6,0.3,0.9,0.3c0.3,0,0.6-0.1,0.8-0.2c1.6-1.1,3.5-1.6,5.5-1.6c5.5,0,10.1,4.5,10.1,10.1c0,3.3-1.6,6.2-4,8
	C-496.6,315.2-501.3,313.1-506.5,313.1z"/>
</svg>
