<?xml version="1.0" encoding="utf-8"?>
<!-- Generator: Adobe Illustrator 19.1.0, SVG Export Plug-In . SVG Version: 6.00 Build 0)  -->
<svg version="1.1" id="Layer_1" xmlns="http://www.w3.org/2000/svg" xmlns:xlink="http://www.w3.org/1999/xlink" x="0px" y="0px"
	 viewBox="-573 276 100 100" style="enable-background:new -573 276 100 100;" xml:space="preserve">
<style type="text/css">
	.st0{fill:#FFFFFF;}
</style>
<g>
	<path class="st0" d="M-536.8,350.2c0,1.9-1.5,3.4-3.4,3.4c-1.9,0-3.4-1.5-3.4-3.4s3.4-6.9,3.4-6.9S-536.8,348.4-536.8,350.2z"/>
	<path class="st0" d="M-522.3,360.5c0,1.9-1.5,3.4-3.4,3.4c-1.9,0-3.4-1.5-3.4-3.4c0-1.9,3.4-6.9,3.4-6.9S-522.3,358.7-522.3,360.5z
		"/>
	<path class="st0" d="M-508.5,357c0,1.9-1.5,3.4-3.4,3.4s-3.4-1.5-3.4-3.4s3.4-6.9,3.4-6.9S-508.5,355.1-508.5,357z"/>
	<g>
		<path class="st0" d="M-523.7,343.3c-5.7,0-10.6-3.5-12.6-8.7c-1.8,0.9-3.8,1.4-5.9,1.4c-7.4,0-13.5-6-13.5-13.5s6-13.5,13.5-13.5
			c1.3,0,2.6,0.2,3.8,0.6c1.8-5.5,6.9-9.2,12.8-9.2c2.9,0,5.6,0.9,7.9,2.6c2.9-1.7,6.1-2.6,9.4-2.6c10.2,0,18.6,8.3,18.6,18.5
			c0,10.2-8.3,18.6-18.6,18.6c-1.4,0-2.7-0.2-4.1-0.5C-514.8,341-519,343.3-523.7,343.3z M-535.6,331.7c0.1,0,0.3,0,0.4,0.1
			c0.4,0.1,0.6,0.4,0.7,0.8c1.2,4.9,5.7,8.4,10.8,8.4c4.1,0,7.8-2.2,9.8-5.8c0.3-0.5,0.8-0.7,1.4-0.6c1.5,0.4,2.9,0.6,4.4,0.6
			c8.9,0,16.2-7.3,16.2-16.2c0-8.9-7.3-16.2-16.2-16.2c-3.2,0-6.2,0.9-8.9,2.7c-0.4,0.3-1,0.3-1.4-0.1c-2-1.7-4.5-2.6-7.1-2.6
			c-5.2,0-9.7,3.6-10.8,8.6c-0.1,0.3-0.3,0.6-0.6,0.8c-0.3,0.2-0.7,0.2-1,0c-1.3-0.5-2.7-0.8-4.2-0.8c-6.1,0-11.1,5-11.1,11.1
			c0,6.1,5,11.1,11.1,11.1c2.1,0,4.2-0.6,5.9-1.7C-536,331.8-535.8,331.7-535.6,331.7z"/>
	</g>
</g>
</svg>
