<?xml version="1.0" encoding="utf-8"?>
<!-- Generator: Adobe Illustrator 19.1.0, SVG Export Plug-In . SVG Version: 6.00 Build 0)  -->
<svg version="1.1" id="Layer_1" xmlns="http://www.w3.org/2000/svg" xmlns:xlink="http://www.w3.org/1999/xlink" x="0px" y="0px"
	 viewBox="-573 276 100 100" style="enable-background:new -573 276 100 100;" xml:space="preserve">
<style type="text/css">
	.st0{fill:#FFFFFF;}
</style>
<g>
	<path class="st0" d="M-535.7,291.4c0.6,0,1.2-0.5,1.2-1.2v-4.9c0-0.6-0.5-1.2-1.2-1.2s-1.2,0.5-1.2,1.2v4.9
		C-536.9,290.8-536.3,291.4-535.7,291.4z"/>
	<path class="st0" d="M-524,297.3c0.3,0,0.6-0.1,0.8-0.3l4.2-4.2c0.5-0.5,0.5-1.2,0-1.7s-1.2-0.5-1.7,0l-4.2,4.2
		c-0.5,0.5-0.5,1.2,0,1.7C-524.6,297.2-524.3,297.3-524,297.3z"/>
	<path class="st0" d="M-550.1,297c0.2,0.2,0.5,0.3,0.8,0.3s0.6-0.1,0.8-0.3c0.5-0.5,0.5-1.2,0-1.7l-4.2-4.2c-0.5-0.5-1.2-0.5-1.7,0
		s-0.5,1.2,0,1.7L-550.1,297z"/>
	<path class="st0" d="M-552.3,307.6c0-0.6-0.5-1.2-1.2-1.2h-5.3c-0.6,0-1.2,0.5-1.2,1.2c0,0.6,0.5,1.2,1.2,1.2h5.3
		C-552.8,308.8-552.3,308.2-552.3,307.6z"/>
	<path class="st0" d="M-510.7,302.5c-3.3,0-6.6,0.9-9.4,2.6c-1.4-1-3-1.8-4.7-2.2c-2.2-5.1-7.7-8-13.3-6.8c-6.3,1.4-10.3,7.7-9,14
		c0.1,0.4,0.2,0.9,0.4,1.3c-6.4,1-11.4,6.6-11.4,13.3c0,7.4,6,13.5,13.5,13.5c2,0,4.1-0.5,5.9-1.4c2,5.2,6.9,8.7,12.6,8.7
		c4.6,0,8.9-2.4,11.4-6.3c1.4,0.3,2.8,0.5,4.1,0.5c10.2,0,18.6-8.3,18.6-18.6C-492.2,310.8-500.5,302.5-510.7,302.5z M-537.7,298.4
		c4-0.9,7.9,0.9,9.9,4.1c-0.1,0-0.2,0-0.4,0c-5.9,0-11,3.7-12.8,9.2c-1.1-0.3-2.3-0.5-3.5-0.5c-0.2-0.5-0.4-1-0.5-1.6
		C-546,304.5-542.8,299.5-537.7,298.4z M-510.7,337.3c-1.4,0-2.9-0.2-4.4-0.6c-0.5-0.1-1.1,0.1-1.4,0.6c-1.9,3.6-5.7,5.8-9.8,5.8
		c-5.1,0-9.5-3.4-10.7-8.4c-0.1-0.4-0.4-0.7-0.7-0.8c-0.1-0.1-0.3-0.1-0.4-0.1c-0.2,0-0.4,0.1-0.6,0.2c-1.8,1.1-3.8,1.7-5.9,1.7
		c-6.1,0-11.1-5-11.1-11.1s5-11.1,11.1-11.1c1.4,0,2.8,0.3,4.2,0.8c0.3,0.1,0.7,0.1,1,0c0.3-0.2,0.5-0.4,0.6-0.8
		c1.1-5.1,5.6-8.6,10.8-8.6c0.5,0,1,0,1.5,0.1c0.9,0.1,1.7,0.3,2.6,0.7c1.1,0.4,2.2,1,3.1,1.8c0.4,0.3,1,0.4,1.4,0.1
		c2.6-1.7,5.7-2.7,8.9-2.7c8.9,0,16.2,7.3,16.2,16.2C-494.5,330-501.8,337.3-510.7,337.3z"/>
</g>
<g>
	<path class="st0" d="M-538.3,353.3c0,1.9-1.5,3.4-3.4,3.4s-3.4-1.5-3.4-3.4s3.4-6.9,3.4-6.9S-538.3,351.4-538.3,353.3z"/>
	<path class="st0" d="M-523.8,363.6c0,1.9-1.5,3.4-3.4,3.4s-3.4-1.5-3.4-3.4s3.4-6.9,3.4-6.9S-523.8,361.7-523.8,363.6z"/>
	<path class="st0" d="M-510,360.1c0,1.9-1.5,3.4-3.4,3.4c-1.9,0-3.4-1.5-3.4-3.4s3.4-6.9,3.4-6.9S-510,358.2-510,360.1z"/>
</g>
</svg>
