<?xml version="1.0" encoding="utf-8"?>
<!-- Generator: Adobe Illustrator 19.1.0, SVG Export Plug-In . SVG Version: 6.00 Build 0)  -->
<svg version="1.1" id="Laag_1" xmlns="http://www.w3.org/2000/svg" xmlns:xlink="http://www.w3.org/1999/xlink" x="0px" y="0px"
	 viewBox="-573 281.5 100 88.5" style="enable-background:new -573 281.5 100 88.5;" xml:space="preserve">
<style type="text/css">
	.st0{fill:#FFED00;stroke:#FFED00;stroke-width:2;stroke-miterlimit:10;}
	.st1{fill:#FFED00;stroke:#FFED00;stroke-miterlimit:10;}
	.st2{fill:#FFFFFF;}
</style>
<g>
	<path class="st0" d="M-499.6,300c0.7,0.1,1.4-0.4,1.5-1.2l0.9-6.8c0.1-0.7-0.4-1.4-1.2-1.5c-0.7-0.1-1.4,0.4-1.5,1.2l-0.9,6.8
		C-500.9,299.2-500.4,299.9-499.6,300z"/>
	<path class="st1" d="M-508.5,311.8c7.7,0,14.2,5,16.6,11.9c1.4-1.8,2.3-4,2.6-6.4c0.9-7.3-4.2-13.9-11.5-14.8
		c-6.2-0.8-12,2.9-14.1,8.5c0.4,0.5,0.7,1.1,1,1.6C-512.2,312.1-510.4,311.8-508.5,311.8z"/>
	<path class="st0" d="M-486.7,318.7c-0.1,0.7,0.4,1.4,1.2,1.5l6.8,0.9c0.7,0.1,1.4-0.4,1.5-1.2c0.1-0.7-0.4-1.4-1.2-1.5l-6.8-0.9
		C-485.9,317.4-486.6,318-486.7,318.7z"/>
	<path class="st0" d="M-486.8,307.9l5.4-4.2c0.6-0.5,0.7-1.3,0.2-1.9s-1.3-0.7-1.9-0.2l-5.4,4.2c-0.6,0.5-0.7,1.3-0.2,1.9
		C-488.3,308.2-487.4,308.3-486.8,307.9z"/>
	<path class="st0" d="M-514.5,302.8c0.5,0.6,1.3,0.7,1.9,0.2c0.6-0.5,0.7-1.3,0.2-1.9l-4.2-5.4c-0.5-0.6-1.3-0.7-1.9-0.2
		c-0.6,0.5-0.7,1.3-0.2,1.9L-514.5,302.8z"/>
</g>
<g>
	<path class="st2" d="M-490.6,328.7c-1.4,0-2.8,0.2-4.1,0.6c0-7.6-6.2-13.8-13.8-13.8c-2.6,0-5,0.7-7.1,2
		c-3.4-8.4-11.6-14.2-21.1-14.2c-11.8,0-21.5,9-22.7,20.4c-6.2,2.5-10.5,8.5-10.5,15.5c0,9,7.1,16.3,15.9,16.7c0.1,0,0.1,0,0.2,0
		h62.9h0.1c0.1,0,0.1,0,0.2,0c7.5,0,13.6-6.1,13.6-13.6C-477,334.8-483.1,328.7-490.6,328.7z"/>
</g>
</svg>
